<svg xmlns="http://www.w3.org/2000/svg" xmlns:xlink="http://www.w3.org/1999/xlink" width="150" zoomAndPan="magnify" viewBox="0 0 112.5 112.499997" height="150" preserveAspectRatio="xMidYMid meet" version="1.0"><defs><clipPath id="f1cf9dbd10"><path d="M 0 0 L 112.003906 0 L 112.003906 112.003906 L 0 112.003906 Z M 0 0 " clip-rule="nonzero"/></clipPath><clipPath id="42f55e092d"><path d="M 0 0 L 112.003906 0 L 112.003906 112.003906 L 0 112.003906 Z M 0 0 " clip-rule="nonzero"/></clipPath><clipPath id="ad84cc4da5"><path d="M 88.332031 9.296875 L 78.402344 33.601562 L 102.703125 23.457031 L 112.003906 45.859375 L 87.699219 56 L 112.003906 66.144531 L 102.703125 88.546875 L 78.402344 78.402344 L 88.332031 102.703125 L 65.933594 112.003906 L 56 87.699219 L 45.859375 112.003906 L 23.457031 102.703125 L 33.601562 78.402344 L 9.296875 88.546875 L 0 66.144531 L 24.300781 56 L 0 45.859375 L 9.296875 23.457031 L 33.601562 33.601562 L 23.457031 9.296875 L 45.859375 0 L 56 24.300781 L 65.933594 0 Z M 88.332031 9.296875 " clip-rule="nonzero"/></clipPath><clipPath id="074345ff75"><path d="M 0 0 L 112.003906 0 L 112.003906 112.003906 L 0 112.003906 Z M 0 0 " clip-rule="nonzero"/></clipPath><clipPath id="49b6b1721d"><path d="M 88.332031 9.296875 L 78.402344 33.601562 L 102.703125 23.457031 L 112.003906 45.859375 L 87.699219 56 L 112.003906 66.144531 L 102.703125 88.546875 L 78.402344 78.402344 L 88.332031 102.703125 L 65.933594 112.003906 L 56 87.699219 L 45.859375 112.003906 L 23.457031 102.703125 L 33.601562 78.402344 L 9.296875 88.546875 L 0 66.144531 L 24.300781 56 L 0 45.859375 L 9.296875 23.457031 L 33.601562 33.601562 L 23.457031 9.296875 L 45.859375 0 L 56 24.300781 L 65.933594 0 Z M 88.332031 9.296875 " clip-rule="nonzero"/></clipPath><clipPath id="5d468035c0"><rect x="0" width="113" y="0" height="113"/></clipPath></defs><g clip-path="url(#f1cf9dbd10)"><path fill="#ffffff" d="M 0 0 L 112.003906 0 L 112.003906 112.003906 L 0 112.003906 Z M 0 0 " fill-opacity="1" fill-rule="nonzero"/><path fill="#ffffff" d="M 0 0 L 112.003906 0 L 112.003906 112.003906 L 0 112.003906 Z M 0 0 " fill-opacity="1" fill-rule="nonzero"/></g><g clip-path="url(#42f55e092d)"><g clip-path="url(#ad84cc4da5)"><g transform="matrix(1, 0, 0, 1, 0, -0.000000000000000624)"><g clip-path="url(#5d468035c0)"><g clip-path="url(#074345ff75)"><g clip-path="url(#49b6b1721d)"><path fill="#e2a9f1" d="M 0 0 L 112.003906 0 L 112.003906 112.003906 L 0 112.003906 Z M 0 0 " fill-opacity="1" fill-rule="nonzero"/></g></g></g></g></g></g></svg>