<svg xmlns="http://www.w3.org/2000/svg" xmlns:xlink="http://www.w3.org/1999/xlink" width="150" zoomAndPan="magnify" viewBox="0 0 112.5 112.499997" height="150" preserveAspectRatio="xMidYMid meet" version="1.0"><defs><clipPath id="63c4ff3307"><path d="M 0 0 L 112.003906 0 L 112.003906 112.003906 L 0 112.003906 Z M 0 0 " clip-rule="nonzero"/></clipPath><clipPath id="100e9763a5"><path d="M 11.769531 11.199219 L 99.878906 11.199219 L 99.878906 100.800781 L 11.769531 100.800781 Z M 11.769531 11.199219 " clip-rule="nonzero"/></clipPath></defs><g clip-path="url(#63c4ff3307)"><path fill="#ffffff" d="M 0 0 L 112.003906 0 L 112.003906 112.003906 L 0 112.003906 Z M 0 0 " fill-opacity="1" fill-rule="nonzero"/><path fill="#ffffff" d="M 0 0 L 112.003906 0 L 112.003906 112.003906 L 0 112.003906 Z M 0 0 " fill-opacity="1" fill-rule="nonzero"/></g><g clip-path="url(#100e9763a5)"><path fill="#fffc00" d="M 99.878906 56 C 99.878906 57.46875 99.808594 58.929688 99.667969 60.386719 C 99.523438 61.847656 99.3125 63.296875 99.03125 64.734375 C 98.75 66.171875 98.402344 67.589844 97.980469 68.996094 C 97.5625 70.398438 97.078125 71.777344 96.523438 73.128906 C 95.972656 74.484375 95.355469 75.808594 94.675781 77.101562 C 93.996094 78.394531 93.257812 79.648438 92.453125 80.867188 C 91.652344 82.085938 90.792969 83.261719 89.878906 84.398438 C 88.964844 85.53125 87.996094 86.613281 86.976562 87.652344 C 85.957031 88.6875 84.886719 89.671875 83.773438 90.601562 C 82.65625 91.53125 81.5 92.402344 80.300781 93.21875 C 79.101562 94.03125 77.863281 94.785156 76.589844 95.476562 C 75.320312 96.167969 74.015625 96.792969 72.683594 97.355469 C 71.351562 97.914062 69.992188 98.40625 68.613281 98.832031 C 67.230469 99.257812 65.835938 99.613281 64.417969 99.902344 C 63.003906 100.1875 61.578125 100.402344 60.144531 100.546875 C 58.707031 100.6875 57.265625 100.761719 55.824219 100.761719 C 54.382812 100.761719 52.941406 100.6875 51.507812 100.546875 C 50.070312 100.402344 48.644531 100.1875 47.230469 99.902344 C 45.816406 99.613281 44.417969 99.257812 43.035156 98.832031 C 41.65625 98.40625 40.296875 97.914062 38.964844 97.355469 C 37.632812 96.792969 36.328125 96.167969 35.058594 95.476562 C 33.785156 94.785156 32.550781 94.03125 31.347656 93.21875 C 30.148438 92.402344 28.992188 91.53125 27.875 90.601562 C 26.761719 89.671875 25.695312 88.6875 24.671875 87.652344 C 23.652344 86.613281 22.6875 85.53125 21.769531 84.398438 C 20.855469 83.261719 19.996094 82.085938 19.195312 80.867188 C 18.394531 79.648438 17.652344 78.394531 16.972656 77.101562 C 16.292969 75.808594 15.675781 74.484375 15.125 73.128906 C 14.570312 71.777344 14.085938 70.398438 13.667969 68.996094 C 13.25 67.589844 12.898438 66.171875 12.617188 64.734375 C 12.335938 63.296875 12.125 61.847656 11.984375 60.386719 C 11.839844 58.929688 11.769531 57.46875 11.769531 56 C 11.769531 54.535156 11.839844 53.074219 11.984375 51.613281 C 12.125 50.15625 12.335938 48.707031 12.617188 47.269531 C 12.898438 45.832031 13.25 44.410156 13.667969 43.007812 C 14.085938 41.605469 14.570312 40.226562 15.125 38.871094 C 15.675781 37.519531 16.292969 36.195312 16.972656 34.902344 C 17.652344 33.609375 18.394531 32.351562 19.195312 31.132812 C 19.996094 29.914062 20.855469 28.738281 21.769531 27.605469 C 22.6875 26.472656 23.652344 25.386719 24.671875 24.351562 C 25.695312 23.316406 26.761719 22.332031 27.875 21.402344 C 28.992188 20.472656 30.148438 19.597656 31.347656 18.785156 C 32.550781 17.96875 33.785156 17.21875 35.058594 16.527344 C 36.328125 15.835938 37.632812 15.210938 38.964844 14.648438 C 40.296875 14.085938 41.65625 13.59375 43.035156 13.167969 C 44.417969 12.742188 45.816406 12.386719 47.230469 12.101562 C 48.644531 11.816406 50.070312 11.601562 51.507812 11.457031 C 52.941406 11.3125 54.382812 11.242188 55.824219 11.242188 C 57.265625 11.242188 58.707031 11.3125 60.144531 11.457031 C 61.578125 11.601562 63.003906 11.816406 64.417969 12.101562 C 65.835938 12.386719 67.230469 12.742188 68.613281 13.167969 C 69.992188 13.59375 71.351562 14.085938 72.683594 14.648438 C 74.015625 15.210938 75.320312 15.835938 76.589844 16.527344 C 77.863281 17.21875 79.101562 17.96875 80.300781 18.785156 C 81.5 19.597656 82.65625 20.472656 83.773438 21.402344 C 84.886719 22.332031 85.957031 23.316406 86.976562 24.351562 C 87.996094 25.386719 88.964844 26.472656 89.878906 27.605469 C 90.792969 28.738281 91.652344 29.914062 92.453125 31.132812 C 93.257812 32.351562 93.996094 33.609375 94.675781 34.902344 C 95.355469 36.195312 95.972656 37.519531 96.523438 38.871094 C 97.078125 40.226562 97.5625 41.605469 97.980469 43.007812 C 98.402344 44.410156 98.75 45.832031 99.03125 47.269531 C 99.3125 48.707031 99.523438 50.15625 99.667969 51.613281 C 99.808594 53.074219 99.878906 54.535156 99.878906 56 Z M 99.878906 56 " fill-opacity="1" fill-rule="nonzero"/></g><path fill="#ffffff" d="M 56.175781 84.070312 C 56 84.070312 55.882812 84.070312 55.707031 84.070312 C 55.589844 84.070312 55.53125 84.070312 55.414062 84.070312 C 51.890625 84.070312 49.597656 82.480469 47.425781 80.886719 C 45.898438 79.824219 44.488281 78.824219 42.785156 78.527344 C 41.960938 78.410156 41.140625 78.351562 40.375 78.351562 C 38.964844 78.351562 37.851562 78.585938 37.027344 78.707031 C 36.558594 78.824219 36.089844 78.882812 35.792969 78.882812 C 35.441406 78.882812 35.089844 78.824219 34.914062 78.234375 C 34.796875 77.761719 34.679688 77.289062 34.5625 76.816406 C 34.324219 75.640625 34.148438 74.929688 33.679688 74.871094 C 28.101562 73.988281 26.457031 72.808594 26.101562 71.984375 C 26.042969 71.863281 26.042969 71.746094 26.042969 71.628906 C 26.042969 71.332031 26.277344 71.039062 26.574219 70.980469 C 35.207031 69.566406 39.023438 60.71875 39.203125 60.363281 C 39.203125 60.363281 39.203125 60.363281 39.203125 60.304688 C 39.730469 59.246094 39.847656 58.300781 39.496094 57.535156 C 38.90625 56.117188 36.96875 55.53125 35.675781 55.117188 C 35.382812 55 35.089844 54.941406 34.855469 54.820312 C 32.328125 53.820312 32.09375 52.757812 32.210938 52.226562 C 32.386719 51.34375 33.5625 50.695312 34.5625 50.695312 C 34.855469 50.695312 35.089844 50.753906 35.265625 50.8125 C 36.382812 51.34375 37.4375 51.636719 38.320312 51.636719 C 39.554688 51.636719 40.082031 51.105469 40.140625 51.046875 C 40.082031 50.457031 40.082031 49.867188 40.023438 49.21875 C 39.789062 45.148438 39.4375 40.078125 40.730469 37.1875 C 44.605469 28.636719 52.769531 27.929688 55.238281 27.929688 C 55.296875 27.929688 56.292969 27.929688 56.292969 27.929688 L 56.410156 27.929688 C 58.820312 27.929688 67.042969 28.578125 70.921875 37.308594 C 72.210938 40.195312 71.859375 45.269531 71.625 49.394531 L 71.625 49.574219 C 71.566406 50.164062 71.566406 50.695312 71.507812 51.222656 C 71.566406 51.285156 72.035156 51.753906 73.152344 51.8125 C 73.976562 51.753906 74.972656 51.519531 76.03125 50.988281 C 76.324219 50.871094 76.675781 50.8125 76.910156 50.8125 C 77.265625 50.8125 77.617188 50.871094 77.96875 50.988281 C 78.851562 51.285156 79.378906 51.933594 79.4375 52.523438 C 79.4375 53.113281 78.96875 53.996094 76.734375 54.878906 C 76.5 55 76.207031 55.058594 75.914062 55.175781 C 74.621094 55.589844 72.683594 56.179688 72.09375 57.59375 C 71.800781 58.359375 71.859375 59.304688 72.390625 60.363281 C 72.390625 60.363281 72.390625 60.363281 72.390625 60.425781 C 72.566406 60.777344 76.382812 69.625 85.019531 71.039062 C 85.3125 71.097656 85.546875 71.394531 85.546875 71.6875 C 85.546875 71.804688 85.488281 71.921875 85.488281 72.042969 C 85.136719 72.867188 83.550781 74.046875 77.910156 74.929688 C 77.441406 74.988281 77.265625 75.578125 77.03125 76.878906 C 76.910156 77.347656 76.851562 77.761719 76.675781 78.234375 C 76.558594 78.644531 76.324219 78.824219 75.855469 78.824219 L 75.796875 78.824219 C 75.503906 78.824219 75.089844 78.765625 74.5625 78.644531 C 73.621094 78.46875 72.566406 78.292969 71.214844 78.292969 C 70.449219 78.292969 69.628906 78.351562 68.804688 78.46875 C 67.101562 78.765625 65.691406 79.765625 64.164062 80.828125 C 61.992188 82.480469 59.761719 84.070312 56.175781 84.070312 Z M 56.175781 84.070312 " fill-opacity="1" fill-rule="nonzero"/><path fill="#030303" d="M 56.410156 28.578125 C 58.703125 28.578125 66.574219 29.167969 70.332031 37.542969 C 71.566406 40.316406 71.273438 45.269531 70.980469 49.277344 C 70.921875 49.925781 70.921875 50.515625 70.863281 51.105469 L 70.863281 51.34375 L 71.039062 51.519531 C 71.097656 51.578125 71.742188 52.285156 73.152344 52.34375 C 74.09375 52.285156 75.148438 51.992188 76.265625 51.460938 C 76.441406 51.402344 76.675781 51.34375 76.910156 51.34375 C 77.207031 51.34375 77.5 51.402344 77.734375 51.519531 L 77.792969 51.519531 C 78.378906 51.753906 78.792969 52.109375 78.851562 52.460938 C 78.851562 52.640625 78.675781 53.40625 76.558594 54.230469 C 76.324219 54.289062 76.089844 54.410156 75.738281 54.527344 C 74.328125 54.941406 72.273438 55.648438 71.566406 57.296875 C 71.15625 58.242188 71.273438 59.363281 71.859375 60.601562 C 72.09375 61.191406 76.089844 70.15625 84.960938 71.628906 C 84.960938 71.6875 84.960938 71.6875 84.902344 71.746094 C 84.722656 72.101562 83.785156 73.339844 77.851562 74.28125 C 76.910156 74.402344 76.675781 75.460938 76.441406 76.699219 C 76.324219 77.113281 76.265625 77.585938 76.089844 78.058594 C 76.03125 78.175781 76.03125 78.175781 75.914062 78.175781 C 75.914062 78.175781 75.855469 78.175781 75.855469 78.175781 C 75.5625 78.175781 75.207031 78.117188 74.738281 78.058594 C 73.917969 77.878906 72.742188 77.703125 71.273438 77.703125 C 70.449219 77.703125 69.570312 77.761719 68.746094 77.9375 C 66.925781 78.234375 65.457031 79.296875 63.871094 80.414062 C 61.757812 81.890625 59.582031 83.480469 56.234375 83.480469 C 56.117188 83.480469 55.941406 83.480469 55.824219 83.480469 L 55.707031 83.480469 C 55.648438 83.480469 55.53125 83.480469 55.472656 83.480469 C 52.125 83.480469 49.949219 81.949219 47.835938 80.414062 C 46.25 79.296875 44.78125 78.234375 42.960938 77.9375 C 42.078125 77.820312 41.257812 77.703125 40.433594 77.703125 C 38.964844 77.703125 37.792969 77.9375 36.96875 78.117188 C 36.5 78.234375 36.089844 78.292969 35.851562 78.292969 C 35.617188 78.292969 35.617188 78.292969 35.558594 78.117188 C 35.441406 77.644531 35.324219 77.230469 35.207031 76.757812 C 34.914062 75.519531 34.738281 74.460938 33.796875 74.339844 C 27.804688 73.398438 26.867188 72.160156 26.75 71.804688 C 26.75 71.746094 26.691406 71.6875 26.691406 71.6875 C 35.558594 70.214844 39.554688 61.25 39.789062 60.660156 C 40.375 59.421875 40.492188 58.300781 40.082031 57.359375 C 39.378906 55.707031 37.261719 55 35.914062 54.585938 C 35.617188 54.46875 35.324219 54.410156 35.089844 54.289062 C 33.269531 53.582031 32.738281 52.875 32.800781 52.402344 C 32.917969 51.875 33.738281 51.402344 34.503906 51.402344 C 34.679688 51.402344 34.796875 51.402344 34.914062 51.460938 C 36.148438 52.050781 37.261719 52.34375 38.261719 52.34375 C 39.789062 52.34375 40.492188 51.636719 40.550781 51.519531 L 40.730469 51.34375 L 40.730469 51.105469 C 40.671875 50.515625 40.671875 49.925781 40.609375 49.277344 C 40.375 45.269531 40.023438 40.253906 41.257812 37.542969 C 45.015625 29.226562 52.886719 28.578125 55.238281 28.578125 C 55.296875 28.578125 56.292969 28.578125 56.292969 28.578125 C 56.292969 28.578125 56.351562 28.578125 56.410156 28.578125 M 56.410156 27.339844 C 56.351562 27.339844 56.292969 27.339844 56.234375 27.339844 C 56.234375 27.339844 55.238281 27.339844 55.179688 27.339844 C 52.652344 27.339844 44.136719 28.046875 40.140625 37.070312 C 38.789062 40.136719 39.144531 45.269531 39.378906 49.394531 C 39.4375 49.867188 39.4375 50.398438 39.496094 50.871094 C 39.261719 50.988281 38.90625 51.105469 38.320312 51.105469 C 37.5 51.105469 36.558594 50.871094 35.5 50.339844 C 35.207031 50.222656 34.914062 50.164062 34.5625 50.164062 C 33.328125 50.164062 31.859375 50.988281 31.625 52.226562 C 31.449219 53.113281 31.859375 54.410156 34.679688 55.53125 C 34.914062 55.648438 35.265625 55.707031 35.558594 55.824219 C 36.734375 56.179688 38.496094 56.769531 38.964844 57.886719 C 39.203125 58.476562 39.144531 59.246094 38.671875 60.128906 C 38.671875 60.128906 38.671875 60.1875 38.671875 60.1875 C 38.496094 60.542969 34.796875 69.09375 26.515625 70.449219 C 25.867188 70.566406 25.398438 71.097656 25.457031 71.746094 C 25.457031 71.921875 25.515625 72.160156 25.574219 72.335938 C 26.21875 73.8125 28.804688 74.871094 33.5625 75.578125 C 33.738281 75.816406 33.914062 76.582031 33.972656 77.054688 C 34.089844 77.527344 34.148438 77.996094 34.324219 78.46875 C 34.445312 78.941406 34.855469 79.53125 35.792969 79.53125 C 36.207031 79.53125 36.617188 79.414062 37.144531 79.355469 C 37.96875 79.175781 39.023438 79 40.375 79 C 41.140625 79 41.902344 79.058594 42.726562 79.175781 C 44.253906 79.414062 45.546875 80.355469 47.074219 81.417969 C 49.246094 82.953125 51.714844 84.71875 55.414062 84.71875 C 55.53125 84.71875 55.589844 84.71875 55.707031 84.71875 C 55.824219 84.71875 56 84.71875 56.175781 84.71875 C 59.9375 84.71875 62.34375 82.953125 64.519531 81.417969 C 66.046875 80.355469 67.335938 79.414062 68.863281 79.175781 C 69.628906 79.058594 70.449219 79 71.214844 79 C 72.507812 79 73.5625 79.175781 74.445312 79.355469 C 75.03125 79.472656 75.503906 79.53125 75.796875 79.53125 L 75.914062 79.53125 C 76.617188 79.53125 77.148438 79.175781 77.324219 78.46875 C 77.441406 77.996094 77.558594 77.527344 77.675781 77.054688 C 77.792969 76.582031 77.96875 75.816406 78.085938 75.640625 C 82.84375 74.871094 85.488281 73.8125 86.074219 72.394531 C 86.132812 72.21875 86.191406 72.042969 86.191406 71.804688 C 86.25 71.15625 85.78125 70.566406 85.136719 70.507812 C 76.851562 69.152344 73.152344 60.601562 72.976562 60.246094 C 72.976562 60.246094 72.976562 60.1875 72.976562 60.1875 C 72.507812 59.304688 72.449219 58.535156 72.683594 57.945312 C 73.152344 56.828125 74.914062 56.238281 76.089844 55.882812 C 76.441406 55.765625 76.734375 55.707031 76.96875 55.589844 C 79.027344 54.761719 80.082031 53.761719 80.023438 52.582031 C 80.023438 51.695312 79.320312 50.871094 78.144531 50.457031 C 77.792969 50.28125 77.324219 50.222656 76.851562 50.222656 C 76.558594 50.222656 76.089844 50.28125 75.679688 50.457031 C 74.679688 50.929688 73.796875 51.164062 73.035156 51.222656 C 72.507812 51.222656 72.210938 51.046875 72.035156 50.988281 C 72.035156 50.574219 72.09375 50.164062 72.09375 49.691406 L 72.09375 49.515625 C 72.332031 45.386719 72.683594 40.195312 71.332031 37.128906 C 67.453125 27.988281 58.9375 27.339844 56.410156 27.339844 Z M 56.410156 27.339844 " fill-opacity="1" fill-rule="nonzero"/></svg>