<svg xmlns="http://www.w3.org/2000/svg" xmlns:xlink="http://www.w3.org/1999/xlink" width="150" zoomAndPan="magnify" viewBox="0 0 112.5 112.499997" height="150" preserveAspectRatio="xMidYMid meet" version="1.0"><defs><clipPath id="556b9023cc"><path d="M 12 8.1875 L 101.769531 8.1875 L 101.769531 103.761719 L 12 103.761719 Z M 12 8.1875 " clip-rule="nonzero"/></clipPath></defs><g clip-path="url(#556b9023cc)"><path fill="#ffcf6e" d="M 68.261719 8.804688 C 66.925781 8.246094 65.59375 9.890625 64.203125 11.328125 L 62.339844 13.226562 L 47.273438 28.25 C 43.34375 32.171875 37.074219 30.414062 32.03125 29.175781 L 26.917969 28.019531 C 24 27.523438 17.136719 26.121094 15.113281 26.089844 C 9.925781 26.015625 13.507812 31.394531 15.078125 34.355469 L 21.804688 47.398438 C 24.265625 52.269531 25.171875 55.230469 24.984375 57.757812 C 24.792969 60.324219 23.515625 62.328125 21.617188 65.316406 C 20.324219 67.339844 18.773438 69.785156 17.046875 73.070312 C 15.742188 75.574219 12.890625 80.605469 12.269531 82.527344 C 11.53125 84.789062 12.515625 85.855469 14.785156 85.769531 C 15.980469 85.726562 17.578125 85.417969 19.667969 85.019531 L 19.683594 85.011719 C 25.003906 83.988281 31.648438 82.996094 37.261719 82.117188 C 45.148438 80.886719 48.046875 83.792969 52.566406 89.367188 L 52.566406 89.375 C 54.027344 91.15625 55.65625 93.136719 57.679688 95.21875 L 61.902344 99.777344 C 63.328125 101.339844 65.1875 103.722656 66.722656 103.503906 C 68.40625 103.273438 68.734375 101.019531 69.453125 96.296875 L 71.90625 80.886719 C 73.898438 68.496094 77.753906 68.777344 87.550781 64.644531 C 90.375 63.453125 93.691406 61.773438 96.519531 60.449219 L 96.535156 60.441406 C 100.019531 58.808594 101.757812 57.996094 101.765625 56.558594 C 101.765625 55.878906 101.390625 55.339844 100.632812 54.796875 C 99.390625 53.886719 94.238281 51.472656 92.191406 50.425781 L 79.144531 43.714844 C 71.800781 39.9375 71.441406 32.21875 70.921875 24.605469 C 70.832031 23.273438 70.742188 21.917969 70.613281 20.523438 C 70.390625 17.976562 69.988281 15.402344 69.699219 12.910156 C 69.417969 10.484375 69.28125 9.234375 68.261719 8.804688 Z M 68.261719 8.804688 " fill-opacity="1" fill-rule="nonzero"/></g><path fill="#ffffff" d="M 26.476562 70.589844 C 27.460938 68.289062 30.144531 64.210938 31.492188 60.96875 C 32.832031 57.71875 32.847656 55.300781 31.960938 52.617188 C 31.066406 49.9375 29.277344 46.980469 27.640625 44.242188 C 26.007812 41.503906 24.535156 38.988281 24.148438 37.449219 C 23.773438 35.914062 24.484375 35.359375 26.050781 36.460938 C 27.621094 37.570312 30.039062 40.335938 32.160156 43.136719 C 34.285156 45.9375 36.117188 48.777344 37.03125 50.941406 C 37.945312 53.105469 37.945312 54.597656 37.433594 56.480469 C 36.917969 58.367188 35.898438 60.640625 34.453125 63.242188 C 33.007812 65.839844 31.140625 68.761719 29.816406 70.601562 C 28.488281 72.453125 27.707031 73.214844 26.953125 73.328125 C 26.203125 73.4375 25.492188 72.902344 26.476562 70.589844 Z M 71.726562 47.496094 C 73.742188 47.292969 77.253906 48.773438 80.636719 50.140625 C 84.019531 51.503906 87.265625 52.757812 89.003906 53.691406 C 90.742188 54.621094 90.976562 55.230469 89.484375 55.425781 C 88 55.625 84.792969 55.414062 81.59375 55.035156 C 78.394531 54.664062 75.203125 54.125 73.050781 53.5 C 70.894531 52.878906 69.777344 52.167969 69.476562 50.875 C 69.179688 49.578125 69.707031 47.699219 71.726562 47.496094 Z M 53.222656 30.554688 C 54.847656 28.195312 58.667969 24.078125 60.898438 21.855469 C 63.125 19.636719 63.761719 19.3125 64.125 19.585938 C 64.480469 19.851562 64.554688 20.707031 64.046875 22.324219 C 63.542969 23.949219 62.449219 26.328125 61.699219 28.367188 C 60.953125 30.40625 60.554688 32.101562 60.042969 33.238281 C 59.535156 34.378906 58.90625 34.960938 57.667969 35.011719 C 56.425781 35.058594 54.578125 34.570312 53.367188 34.03125 C 52.160156 33.496094 51.59375 32.910156 53.222656 30.554688 Z M 53.222656 30.554688 " fill-opacity="1" fill-rule="evenodd"/></svg>