<svg xmlns="http://www.w3.org/2000/svg" xmlns:xlink="http://www.w3.org/1999/xlink" width="150" zoomAndPan="magnify" viewBox="0 0 112.5 112.499997" height="150" preserveAspectRatio="xMidYMid meet" version="1.0"><defs><clipPath id="c9f10c8f55"><path d="M 0 0 L 112.003906 0 L 112.003906 112.003906 L 0 112.003906 Z M 0 0 " clip-rule="nonzero"/></clipPath><clipPath id="f6ba5f445f"><path d="M 0 0 L 112.003906 0 L 112.003906 107.429688 L 0 107.429688 Z M 0 0 " clip-rule="nonzero"/></clipPath><clipPath id="4f4bb0d20f"><path d="M 53.257812 53.488281 L 53.257812 107.429688 C 23.316406 106.289062 0 82.746094 0 53.488281 C 0 24.457031 23.316406 0.6875 53.257812 0 L 53.257812 53.945312 Z M 53.257812 51.65625 L 53.257812 52.117188 C 53.257812 37.945312 59.199219 24.914062 65.828125 15.542969 C 72.457031 6.398438 81.371094 0.457031 92.117188 0 L 92.117188 107.429688 C 81.371094 106.515625 72.457031 100.800781 65.828125 91.660156 C 59.199219 82.289062 53.257812 69.257812 53.257812 54.859375 Z M 92.117188 53.488281 C 92.117188 38.628906 96 24.914062 99.886719 15.316406 C 101.945312 10.515625 104.230469 6.628906 106.746094 3.886719 C 108.800781 1.828125 110.859375 0.457031 112.003906 0.230469 L 112.003906 107.429688 C 110.859375 106.515625 108.117188 105.375 106.746094 103.085938 C 104.230469 100.574219 101.945312 96.6875 99.886719 91.886719 C 96.230469 82.746094 92.117188 70.171875 92.117188 56.457031 Z M 92.117188 53.488281 " clip-rule="nonzero"/></clipPath><clipPath id="a7af6ea4c1"><path d="M 0 0 L 112.003906 0 L 112.003906 107.429688 L 0 107.429688 Z M 0 0 " clip-rule="nonzero"/></clipPath><clipPath id="13e91178d5"><path d="M 53.257812 53.488281 L 53.257812 107.429688 C 23.316406 106.289062 0 82.746094 0 53.488281 C 0 24.457031 23.316406 0.6875 53.257812 0 L 53.257812 53.945312 Z M 53.257812 51.65625 L 53.257812 52.117188 C 53.257812 37.945312 59.199219 24.914062 65.828125 15.542969 C 72.457031 6.398438 81.371094 0.457031 92.117188 0 L 92.117188 107.429688 C 81.371094 106.515625 72.457031 100.800781 65.828125 91.660156 C 59.199219 82.289062 53.257812 69.257812 53.257812 54.859375 Z M 92.117188 53.488281 C 92.117188 38.628906 96 24.914062 99.886719 15.316406 C 101.945312 10.515625 104.230469 6.628906 106.746094 3.886719 C 108.800781 1.828125 110.859375 0.457031 112.003906 0.230469 L 112.003906 107.429688 C 110.859375 106.515625 108.117188 105.375 106.746094 103.085938 C 104.230469 100.574219 101.945312 96.6875 99.886719 91.886719 C 96.230469 82.746094 92.117188 70.171875 92.117188 56.457031 Z M 92.117188 53.488281 " clip-rule="nonzero"/></clipPath><clipPath id="0695f20b78"><rect x="0" width="113" y="0" height="108"/></clipPath></defs><g clip-path="url(#c9f10c8f55)"><path fill="#ffffff" d="M 0 0 L 112.003906 0 L 112.003906 112.003906 L 0 112.003906 Z M 0 0 " fill-opacity="1" fill-rule="nonzero"/><path fill="#ffffff" d="M 0 0 L 112.003906 0 L 112.003906 112.003906 L 0 112.003906 Z M 0 0 " fill-opacity="1" fill-rule="nonzero"/></g><g clip-path="url(#f6ba5f445f)"><g clip-path="url(#4f4bb0d20f)"><g transform="matrix(1, 0, 0, 1, 0, -0.000000000000000624)"><g clip-path="url(#0695f20b78)"><g clip-path="url(#a7af6ea4c1)"><g clip-path="url(#13e91178d5)"><path fill="#5ce1e6" d="M 0 0 L 112.046875 0 L 112.046875 107.429688 L 0 107.429688 Z M 0 0 " fill-opacity="1" fill-rule="nonzero"/></g></g></g></g></g></g></svg>